<svg width="20" height="19" viewBox="0 0 20 19" fill="none" xmlns="http://www.w3.org/2000/svg">
  <path
    d="M11.2 10C11.8365 10 12.447 10.2529 12.897 10.7029C13.3471 11.153 13.6 11.7635 13.6 12.4V14.2C13.6 16.6648 11.0944 18.4 6.99999 18.4C2.90559 18.4 0.399994 16.6648 0.399994 14.2V12.4C0.399994 11.7635 0.65285 11.153 1.10294 10.7029C1.55302 10.2529 2.16347 10 2.79999 10H11.2ZM11.2 11.2H2.79999C2.48173 11.2 2.17651 11.3264 1.95147 11.5515C1.72642 11.7765 1.59999 12.0817 1.59999 12.4V14.2C1.59999 15.8884 3.49479 17.2 6.99999 17.2C10.5052 17.2 12.4 15.8884 12.4 14.2V12.4C12.4 12.0817 12.2736 11.7765 12.0485 11.5515C11.8235 11.3264 11.5183 11.2 11.2 11.2ZM17.2 10C17.8365 10 18.447 10.2529 18.897 10.7029C19.3471 11.153 19.6 11.7635 19.6 12.4V13C19.6 15.5068 17.7184 17.2 14.2 17.2C14.0308 17.2 13.864 17.1964 13.7032 17.188C13.9497 16.9025 14.16 16.5877 14.3296 16.2508L14.446 15.9952H14.4928C17.1712 15.9172 18.4 14.752 18.4 13V12.4C18.4 12.0817 18.2736 11.7765 18.0485 11.5515C17.8235 11.3264 17.5183 11.2 17.2 11.2H14.5948C14.4378 10.7573 14.1956 10.3497 13.882 10H17.2ZM6.99999 0.399994C7.55155 0.399994 8.0977 0.50863 8.60726 0.7197C9.11683 0.93077 9.57984 1.24014 9.96984 1.63015C10.3598 2.02015 10.6692 2.48316 10.8803 2.99272C11.0914 3.50229 11.2 4.04844 11.2 4.59999C11.2 5.15155 11.0914 5.6977 10.8803 6.20727C10.6692 6.71683 10.3598 7.17984 9.96984 7.56984C9.57984 7.95985 9.11683 8.26922 8.60726 8.48029C8.0977 8.69136 7.55155 8.8 6.99999 8.8C5.88608 8.8 4.8178 8.3575 4.03015 7.56984C3.24249 6.78219 2.79999 5.7139 2.79999 4.59999C2.79999 3.48609 3.24249 2.4178 4.03015 1.63015C4.8178 0.842493 5.88608 0.399994 6.99999 0.399994ZM15.4 2.79999C16.1956 2.79999 16.9587 3.11606 17.5213 3.67867C18.0839 4.24128 18.4 5.00434 18.4 5.79999C18.4 6.59564 18.0839 7.35871 17.5213 7.92132C16.9587 8.48392 16.1956 8.8 15.4 8.8C14.6043 8.8 13.8413 8.48392 13.2787 7.92132C12.7161 7.35871 12.4 6.59564 12.4 5.79999C12.4 5.00434 12.7161 4.24128 13.2787 3.67867C13.8413 3.11606 14.6043 2.79999 15.4 2.79999ZM6.99999 1.59999C6.20434 1.59999 5.44128 1.91606 4.87867 2.47867C4.31606 3.04128 3.99999 3.80434 3.99999 4.59999C3.99999 5.39564 4.31606 6.15871 4.87867 6.72131C5.44128 7.28392 6.20434 7.59999 6.99999 7.59999C7.79564 7.59999 8.5587 7.28392 9.12131 6.72131C9.68392 6.15871 9.99999 5.39564 9.99999 4.59999C9.99999 3.80434 9.68392 3.04128 9.12131 2.47867C8.5587 1.91606 7.79564 1.59999 6.99999 1.59999ZM15.4 3.99999C14.9226 3.99999 14.4648 4.18964 14.1272 4.5272C13.7896 4.86477 13.6 5.32261 13.6 5.79999C13.6 6.27738 13.7896 6.73522 14.1272 7.07279C14.4648 7.41035 14.9226 7.59999 15.4 7.59999C15.8774 7.59999 16.3352 7.41035 16.6728 7.07279C17.0104 6.73522 17.2 6.27738 17.2 5.79999C17.2 5.32261 17.0104 4.86477 16.6728 4.5272C16.3352 4.18964 15.8774 3.99999 15.4 3.99999Z"
    fill="#1D2527" />
</svg>