<svg width="20" height="18" viewBox="0 0 20 18" fill="none" xmlns="http://www.w3.org/2000/svg">
  <path
    d="M4.49919 3.652C5.86905 2.46093 7.58922 1.74784 9.39999 1.6204V3.4C9.39999 3.55913 9.46321 3.71174 9.57573 3.82427C9.68825 3.93679 9.84086 4 9.99999 4C10.1591 4 10.3117 3.93679 10.4243 3.82427C10.5368 3.71174 10.6 3.55913 10.6 3.4V1.6216C12.512 1.75868 14.3196 2.5453 15.7231 3.85097C17.1265 5.15664 18.0414 6.90288 18.316 8.8H16C15.8409 8.8 15.6883 8.86321 15.5757 8.97574C15.4632 9.08826 15.4 9.24087 15.4 9.4C15.4 9.55913 15.4632 9.71174 15.5757 9.82427C15.6883 9.93679 15.8409 10 16 10H18.4C18.3985 11.1595 18.1628 12.3068 17.7068 13.3729C17.2509 14.439 16.5842 15.402 15.7468 16.204C15.6365 16.3144 15.5736 16.4634 15.5714 16.6195C15.5691 16.7755 15.6278 16.9263 15.7349 17.0398C15.842 17.1533 15.9891 17.2206 16.145 17.2274C16.3009 17.2343 16.4534 17.1801 16.57 17.0764C17.5264 16.1623 18.2878 15.0642 18.8086 13.848C19.3293 12.6319 19.5985 11.3229 19.6 10C19.6 7.45392 18.5886 5.01213 16.7882 3.21178C14.9879 1.41143 12.5461 0.400002 9.99999 0.400002C7.45392 0.400002 5.01212 1.41143 3.21177 3.21178C1.41142 5.01213 0.399994 7.45392 0.399994 10C0.399994 12.754 1.62399 15.328 3.47559 17.0764C3.53296 17.1305 3.6004 17.1727 3.67408 17.2007C3.74776 17.2287 3.82623 17.2418 3.90501 17.2395C3.98379 17.2372 4.06134 17.2193 4.13323 17.187C4.20512 17.1547 4.26994 17.1086 4.32399 17.0512C4.37805 16.9938 4.42027 16.9264 4.44826 16.8527C4.47624 16.779 4.48944 16.7006 4.4871 16.6218C4.48476 16.543 4.46693 16.4655 4.43462 16.3936C4.40231 16.3217 4.35616 16.2569 4.29879 16.2028C2.67399 14.668 1.59999 12.4036 1.59999 10H3.99999C4.15912 10 4.31174 9.93679 4.42426 9.82427C4.53678 9.71174 4.59999 9.55913 4.59999 9.4C4.59999 9.24087 4.53678 9.08826 4.42426 8.97574C4.31174 8.86321 4.15912 8.8 3.99999 8.8H1.68399C1.91291 7.20738 2.5962 5.71455 3.65199 4.5004L5.37519 6.2248C5.48786 6.33747 5.64066 6.40076 5.79999 6.40076C5.95932 6.40076 6.11213 6.33747 6.22479 6.2248C6.33746 6.11214 6.40075 5.95933 6.40075 5.8C6.40075 5.64067 6.33746 5.48786 6.22479 5.3752L4.49919 3.652ZM14.1388 4.9684C14.2478 4.8818 14.3836 4.83582 14.5228 4.83834C14.6621 4.84087 14.7961 4.89175 14.9019 4.98226C15.0078 5.07277 15.0788 5.19727 15.1029 5.33442C15.127 5.47158 15.1026 5.61284 15.034 5.734L14.902 5.9692C14.4194 6.82133 13.9338 7.67173 13.4452 8.5204C13.0546 9.19953 12.6585 9.87555 12.2572 10.5484C12.1068 10.8015 11.9532 11.0528 11.7964 11.302C11.6764 11.4904 11.5588 11.6692 11.4724 11.77C11.1624 12.1331 10.7209 12.3583 10.2449 12.3958C9.76893 12.4334 9.29753 12.2804 8.93439 11.9704C8.57126 11.6604 8.34614 11.2189 8.30856 10.7429C8.27097 10.2669 8.42401 9.79554 8.73399 9.4324C8.82039 9.3316 8.97759 9.1864 9.14559 9.0388C9.32559 8.8792 9.55719 8.6836 9.81759 8.464C10.3408 8.0272 10.996 7.492 11.6344 6.976C12.3958 6.36004 13.1599 5.74723 13.9264 5.1376L14.1388 4.9696V4.9684Z"
    fill="#1D2527" />
</svg>